<?xml version="1.0" encoding="UTF-8"?>
<svg width="34px" height="34px" viewBox="0 0 34 34" version="1.1" xmlns="http://www.w3.org/2000/svg" xmlns:xlink="http://www.w3.org/1999/xlink">
    <title>Group_966</title>
    <defs>
        <linearGradient x1="50%" y1="34.9913018%" x2="50%" y2="101.314725%" id="linearGradient-1">
            <stop stop-color="#01E8F8" offset="0%"></stop>
            <stop stop-color="#01E8F8" stop-opacity="0" offset="100%"></stop>
        </linearGradient>
        <linearGradient x1="42.5625304%" y1="20.960183%" x2="71.5258973%" y2="76.0533822%" id="linearGradient-2">
            <stop stop-color="#01E8F7" offset="0%"></stop>
            <stop stop-color="#00B3EC" offset="100%"></stop>
        </linearGradient>
        <path d="M9.42229641,0.709067083 C2.66934477,-1.76153947 2.80141966,2.95529485 0.468043682,5.34356942 C-0.877051482,10.7239501 0.764867395,7.86429017 5.60140718,13.3592949 C7.43841498,15.2193229 5.86492044,15.08083 7.49554134,14.7592886 C9.0180624,14.2171981 7.08876131,16.539117 8.40659282,16.4797629 C8.34713261,16.761947 9.17522621,15.7660281 9.2301248,15.4846396 C14.9400031,13.3777535 17.1894134,10.1917785 17.4122964,6.79846178 C15.8348768,5.74971295 12.4168424,4.50030577 10.7362559,3.93349766 C10.6926022,3.40169735 10.2659314,2.03978783 9.42229641,0.709067083 Z" id="path-3"></path>
        <linearGradient x1="69.8584505%" y1="5.20268809%" x2="-23.2267307%" y2="304.891407%" id="linearGradient-5">
            <stop stop-color="#01E8F7" offset="0%"></stop>
            <stop stop-color="#00C2FF" offset="100%"></stop>
        </linearGradient>
        <linearGradient x1="127.846075%" y1="-16.5921364%" x2="67.5019203%" y2="121.183609%" id="linearGradient-6">
            <stop stop-color="#01E8F7" offset="0%"></stop>
            <stop stop-color="#00B0E8" offset="100%"></stop>
        </linearGradient>
        <linearGradient x1="42.2092557%" y1="89.4585903%" x2="78.911311%" y2="-24.9126907%" id="linearGradient-7">
            <stop stop-color="#01E8F7" offset="0%"></stop>
            <stop stop-color="#00C2FF" offset="100%"></stop>
        </linearGradient>
        <linearGradient x1="81.4576227%" y1="1.74779472%" x2="90.9569698%" y2="88.3129531%" id="linearGradient-8">
            <stop stop-color="#01E8F7" offset="0%"></stop>
            <stop stop-color="#00B3EC" offset="100%"></stop>
        </linearGradient>
        <linearGradient x1="113.808503%" y1="-22.6050173%" x2="66.4691083%" y2="126.906316%" id="linearGradient-9">
            <stop stop-color="#01E8F7" offset="0%"></stop>
            <stop stop-color="#00B3EC" offset="100%"></stop>
        </linearGradient>
    </defs>
    <g id="页面-1" stroke="none" stroke-width="1" fill="none" fill-rule="evenodd">
        <g id="画板备份-3" transform="translate(-915.000000, -221.000000)">
            <g id="Group_966" transform="translate(915.000000, 221.000000)">
                <ellipse id="椭圆形" fill-opacity="0.05" fill="url(#linearGradient-1)" fill-rule="nonzero" cx="16.9789953" cy="16.9830796" rx="16.9789953" ry="16.9830796"></ellipse>
                <path d="M23.2361622,6.53813105 C16.4832106,4.06751919 10.4714165,4.64399688 8.13804056,7.03221841 C6.7929454,12.4126521 1.43997691,15.7616786 6.7929454,21.5264555 C8.6299532,23.3864836 16.7171794,25.5988175 18.3478534,25.2772231 C19.8703214,24.7351326 20.9026271,22.368181 22.2205117,22.3087738 C22.1609984,22.5910109 22.989092,21.595092 23.0440437,21.3137036 C28.753869,19.2068175 30.9290203,16.1672917 31.1518502,12.773975 C29.5744836,11.7252262 26.2307083,10.3293697 24.5501217,9.76256162 C24.506468,9.23076131 24.0797972,7.86885179 23.2361622,6.53813105 Z" id="路径" fill="url(#linearGradient-2)" fill-rule="nonzero"></path>
                <g id="Clipped" transform="translate(13.737910, 5.993760)">
                    <mask id="mask-4" fill="white">
                        <use xlink:href="#path-3"></use>
                    </mask>
                    <g id="路径"></g>
                    <path d="M15.449897,7.03794696 C16.3410047,6.71969423 17.4124555,6.75507332 17.9428768,6.79925741 L18.1020031,7.91314197 C18.1904243,8.8325741 18.1338284,9.8185741 17.7307083,10.667248 C16.7759501,10.4550796 15.5559813,9.13311076 15.449897,7.03794696 Z" id="路径" fill="url(#linearGradient-5)" fill-rule="nonzero" mask="url(#mask-4)"></path>
                </g>
                <path d="M21.7740031,8.34241186 C20.3414945,8.98257722 19.5068768,10.1642496 19.1386053,10.8072793 C18.6476474,11.5717223 18.1522871,13.4007207 18.7414789,14.0866084 C19.4779688,14.9439813 20.8497972,15.0296973 22.5682559,14.0866084 C24.2867145,13.1435195 24.0267551,11.0859095 23.6946053,10.2 C23.3625086,9.31409048 22.7559719,7.91372543 21.7740031,8.34241186 Z" id="路径" fill="url(#linearGradient-6)" fill-rule="nonzero"></path>
                <path d="M20.5870796,10.8450452 C20.5796537,10.4124867 21.4066334,9.65037754 22.1416911,9.34119501 C22.7097722,9.91903588 22.5602465,10.9043463 22.3809111,11.496986 C21.461532,11.5858846 20.5945585,11.2821654 20.5870796,10.8450452 Z" id="路径" fill="#FFFFFF" fill-rule="nonzero"></path>
                <path d="M23.048181,21.2977379 C16.1985335,23.81883 9.43529173,22.5853354 7.49495788,18.2684493 C5.91706084,14.7578565 7.9815663,10.2155944 12.2673697,6.78647426 C6.50158502,7.78711388 2.07256786,12.6651856 2.07256786,18.57917 C2.07256786,25.9658159 8.65536037,32.0691607 16.7756318,32.0691607 C22.839195,32.0691607 27.8865772,28.5527332 30.525688,23.8480031 C27.485897,24.5317691 23.9784337,23.5548924 23.048181,21.2977379 Z" id="路径" fill="url(#linearGradient-7)"></path>
                <path d="M8.82965679,11.970493 C9.59839626,11.7429423 9.66581279,10.7296786 9.60338222,10.2514509 L10.04639,8.71174415 L12.9229173,7.85219657 C13.3680468,7.96761622 14.2582527,7.93382839 14.2582527,6.87521373 C13.7340905,5.15615039 12.3738253,4.01836505 10.4145554,4.2780805 C8.45528549,4.53779064 7.09502028,6.24448986 7.0201248,8.65610296 C6.94528237,11.0677161 7.86874571,12.2549579 8.82965679,11.970493 Z" id="路径" fill="url(#linearGradient-8)" fill-rule="nonzero"></path>
                <path d="M10.6391888,5.06958034 C8.5625897,5.70277067 9.09173791,8.91993448 9.61584711,10.449351 C9.78224025,9.89691732 10.5168736,8.72039002 12.1242621,8.43348518 C13.7315975,8.1465273 14.1750296,7.5389298 14.1958752,7.270961 C13.8755538,6.27334477 12.7157878,4.43637941 10.6391888,5.06958034 Z" id="路径" fill="url(#linearGradient-9)" fill-rule="nonzero"></path>
            </g>
        </g>
    </g>
</svg>