<?xml version="1.0" encoding="UTF-8"?>
<svg width="34px" height="34px" viewBox="0 0 34 34" version="1.1" xmlns="http://www.w3.org/2000/svg" xmlns:xlink="http://www.w3.org/1999/xlink">
    <title>编组</title>
    <defs>
        <linearGradient x1="50%" y1="34.9913018%" x2="50%" y2="101.314725%" id="linearGradient-1">
            <stop stop-color="#01E8F8" offset="0%"></stop>
            <stop stop-color="#01E8F8" stop-opacity="0" offset="100%"></stop>
        </linearGradient>
        <linearGradient x1="42.5625304%" y1="20.960183%" x2="71.5258973%" y2="76.0533822%" id="linearGradient-2">
            <stop stop-color="#FFFFFF" offset="0%"></stop>
            <stop stop-color="#00B3EC" offset="100%"></stop>
        </linearGradient>
        <path d="M9.44292058,0.710619137 C2.67518762,-1.76539525 2.80755159,2.9617636 0.469068168,5.35526579 C-0.878971232,10.7474234 0.766541588,7.88150407 5.61366792,13.3885366 C7.45469669,15.252636 5.87775797,15.1138399 7.51194809,14.7915947 C9.03780175,14.2483177 7.10427767,16.5753189 8.42499375,16.5158349 C8.36540338,16.7986366 9.19530957,15.8005378 9.25032833,15.5185335 C14.9727048,13.4070356 17.2270388,10.2140869 17.4504096,6.81334271 C15.8695372,5.76229831 12.4440213,4.51015635 10.7597561,3.94210757 C10.7160069,3.40914321 10.2884021,2.04425266 9.44292058,0.710619137 Z" id="path-3"></path>
        <linearGradient x1="69.8584505%" y1="5.20268809%" x2="-23.2267307%" y2="304.891407%" id="linearGradient-5">
            <stop stop-color="#9AD5D9" offset="0%"></stop>
            <stop stop-color="#00C2FF" offset="100%"></stop>
        </linearGradient>
        <linearGradient x1="127.846075%" y1="-16.5921364%" x2="67.5019203%" y2="121.183609%" id="linearGradient-6">
            <stop stop-color="#656969" offset="0%"></stop>
            <stop stop-color="#00B0E8" offset="100%"></stop>
        </linearGradient>
        <linearGradient x1="42.2092557%" y1="89.4585903%" x2="78.911311%" y2="-24.9126907%" id="linearGradient-7">
            <stop stop-color="#738485" offset="0%"></stop>
            <stop stop-color="#00C2FF" offset="100%"></stop>
        </linearGradient>
        <linearGradient x1="81.4576227%" y1="1.74779472%" x2="90.9569698%" y2="88.3129531%" id="linearGradient-8">
            <stop stop-color="#EFEFEF" offset="0%"></stop>
            <stop stop-color="#07A6D9" offset="100%"></stop>
        </linearGradient>
        <linearGradient x1="97.2765804%" y1="0%" x2="45.7935084%" y2="107.600975%" id="linearGradient-9">
            <stop stop-color="#DDFDFF" offset="0%"></stop>
            <stop stop-color="#979797" offset="100%"></stop>
        </linearGradient>
    </defs>
    <g id="页面-1" stroke="none" stroke-width="1" fill="none" fill-rule="evenodd">
        <g id="画板">
            <g id="编组">
                <circle id="椭圆形备份" fill="#FFFFFF" fill-rule="nonzero" opacity="0.850771949" cx="17" cy="17" r="17"></circle>
                <circle id="椭圆形" fill-opacity="0.6" fill="url(#linearGradient-1)" fill-rule="nonzero" cx="17" cy="17" r="17"></circle>
                <path d="M23.2870231,6.55244215 C16.5192902,4.07642245 10.4943371,4.65416198 8.15585366,7.04761101 C6.80781426,12.4398218 1.44312883,15.7961789 6.80781426,21.5735741 C8.64884303,23.4376735 16.7537711,25.6548499 18.3880144,25.3325516 C19.9138149,24.7892745 20.9483802,22.417142 22.2691495,22.3576048 C22.2095059,22.6404597 23.0394121,21.6423609 23.0944841,21.3603565 C28.8168074,19.2488587 30.9967198,16.2026798 31.2200375,12.8019356 C29.6392183,11.7508912 26.2881238,10.3519794 24.6038587,9.78393058 C24.5601094,9.25096623 24.1325047,7.88607567 23.2870231,6.55244215 Z" id="路径" fill="url(#linearGradient-2)" fill-rule="nonzero"></path>
                <g id="Clipped" transform="translate(13.767980, 6.006879)">
                    <mask id="mask-4" fill="white">
                        <use xlink:href="#path-3"></use>
                    </mask>
                    <g id="路径"></g>
                    <path d="M15.4837148,7.0533521 C16.376773,6.73440275 17.4505691,6.76985929 17.9821513,6.81414009 L18.141626,7.93046279 C18.2302408,8.85190744 18.173521,9.84006567 17.7695184,10.6905972 C16.8126704,10.4779644 15.5900313,9.15310194 15.4837148,7.0533521 Z" id="路径" fill="url(#linearGradient-5)" fill-rule="nonzero" mask="url(#mask-4)"></path>
                </g>
                <path d="M21.8216635,8.3606723 C20.3860194,9.0022389 19.5495747,10.1864978 19.1804972,10.830935 C18.6884647,11.5970513 18.19202,13.4300532 18.7825016,14.1174422 C19.5206035,14.9766917 20.8954346,15.0625954 22.6176548,14.1174422 C24.3398749,13.1722889 24.0793465,11.1101751 23.7464697,10.2223265 C23.413646,9.3344778 22.8057817,7.93104753 21.8216635,8.3606723 Z" id="路径" fill="url(#linearGradient-6)" fill-rule="nonzero"></path>
                <path d="M20.632142,10.8687836 C20.6246998,10.4352783 21.4534897,9.67150094 22.1901563,9.36164165 C22.7594809,9.94074734 22.6096279,10.9282145 22.4298999,11.5221513 C21.5085084,11.6112445 20.6396373,11.3068605 20.632142,10.8687836 Z" id="路径" fill="#FFFFFF" fill-rule="nonzero"></path>
                <path d="M23.0986304,21.3443558 C16.23399,23.8709662 9.45594434,22.6347717 7.51136335,18.3084365 C5.93001251,14.7901595 7.9990369,10.237955 12.2942214,6.80132896 C6.51581614,7.80415885 2.07710444,12.6929081 2.07710444,18.6198374 C2.07710444,26.0226517 8.67430582,32.1393558 16.8123515,32.1393558 C22.889187,32.1393558 27.9476173,28.6152314 30.5925047,23.9002033 C27.54606,24.5854659 24.0309193,23.6064509 23.0986304,21.3443558 Z" id="路径" fill="url(#linearGradient-7)"></path>
                <path d="M8.84898374,11.9966948 C9.61940588,11.768646 9.68696998,10.7531645 9.62440275,10.2738899 L10.0683802,8.73081301 L12.9512039,7.86938399 C13.3973077,7.98505629 14.2894622,7.9511945 14.2894622,6.89026266 C13.7641526,5.16743652 12.4009099,4.02716073 10.4373515,4.28744465 C8.473793,4.54772326 7.11055034,6.25815822 7.03549093,8.67505003 C6.96048468,11.0919418 7.88596936,12.2817824 8.84898374,11.9966948 Z" id="路径" fill="url(#linearGradient-8)" fill-rule="nonzero"></path>
                <path d="M10.6624765,5.08067699 C8.58133208,5.71525328 9.11163852,8.93945904 9.63689493,10.4722233 C9.80365228,9.91858036 10.5398937,8.7394778 12.1508005,8.45194497 C13.7616542,8.16435897 14.2060569,7.55543152 14.2269481,7.28687617 C13.9059256,6.2870763 12.743621,4.44609006 10.6624765,5.08067699 Z" id="路径" fill="url(#linearGradient-9)" fill-rule="nonzero"></path>
            </g>
        </g>
    </g>
</svg>