<?xml version="1.0" encoding="UTF-8"?>
<svg width="120px" height="60px" viewBox="0 0 120 60" version="1.1" xmlns="http://www.w3.org/2000/svg" xmlns:xlink="http://www.w3.org/1999/xlink">
    <title>Frame_5</title>
    <defs>
        <linearGradient x1="-27.4110612%" y1="47.9504476%" x2="-8.64893591%" y2="56.9351407%" id="linearGradient-1">
            <stop stop-color="#01E8F7" offset="0%"></stop>
            <stop stop-color="#00B3EC" offset="100%"></stop>
        </linearGradient>
        <linearGradient x1="-391.16092%" y1="-30.8573026%" x2="-271.793103%" y2="324.896595%" id="linearGradient-2">
            <stop stop-color="#01E8F7" offset="0%"></stop>
            <stop stop-color="#00B3EC" offset="100%"></stop>
        </linearGradient>
        <linearGradient x1="-1155.78513%" y1="-39.0449438%" x2="-1118.40028%" y2="388.785384%" id="linearGradient-3">
            <stop stop-color="#01E8F7" offset="0%"></stop>
            <stop stop-color="#00B3EC" offset="100%"></stop>
        </linearGradient>
        <linearGradient x1="-228.841343%" y1="-42.0979133%" x2="-221.154965%" y2="400.400883%" id="linearGradient-4">
            <stop stop-color="#01E8F7" offset="0%"></stop>
            <stop stop-color="#00B3EC" offset="100%"></stop>
        </linearGradient>
        <linearGradient x1="-1399.63011%" y1="-42.0979133%" x2="-1361.51242%" y2="400.400883%" id="linearGradient-5">
            <stop stop-color="#01E8F7" offset="0%"></stop>
            <stop stop-color="#00B3EC" offset="100%"></stop>
        </linearGradient>
        <linearGradient x1="-903.190008%" y1="-42.0979133%" x2="-875.862031%" y2="400.400883%" id="linearGradient-6">
            <stop stop-color="#01E8F7" offset="0%"></stop>
            <stop stop-color="#00B3EC" offset="100%"></stop>
        </linearGradient>
        <linearGradient x1="-210.123545%" y1="-42.0979133%" x2="-202.437167%" y2="400.400883%" id="linearGradient-7">
            <stop stop-color="#01E8F7" offset="0%"></stop>
            <stop stop-color="#00B3EC" offset="100%"></stop>
        </linearGradient>
    </defs>
    <g id="页面-1" stroke="none" stroke-width="1" fill="none" fill-rule="evenodd">
        <g id="画板备份-4">
            <g id="Frame_5">
                <rect id="矩形" fill-rule="nonzero" x="0" y="0" width="120" height="60"></rect>
                <g id="编组-2" transform="translate(8.900000, 25.500000)">
                    <path d="M36.7292063,1.28142034 C35.8474033,0.548381575 34.9167652,0.139823009 33.4347405,0.139823009 C30.8665673,0.139823009 29.0534336,2.09144444 29.0142962,4.41314908 L29.0136035,4.51387011 C29.0136035,6.96522151 30.7772094,8.83982301 33.4593312,8.83982301 C34.9780689,8.83982301 36.178166,8.23899141 37.0353782,7.52999975 L37.0353782,3.99715148 L35.5779443,5.29493389 L35.5779443,6.85709604 C35.0514947,7.2416075 34.329012,7.49398099 33.5081664,7.49398099 C31.7826588,7.49398099 30.6279333,6.25740625 30.5943375,4.56587414 L30.5936448,4.46581051 C30.5936448,2.85558875 31.8058641,1.50971213 33.3734369,1.50971213 C34.451273,1.50971213 35.1127984,1.84619858 35.7739774,2.39893597 L36.7292063,1.28142034 Z M47.6038526,4.46581051 C47.6038526,2.09853747 45.7668208,0.139823009 43.1338804,0.139823009 C40.5289943,0.139823009 38.679494,2.09192885 38.6400103,4.41397948 L38.6393176,4.51387011 C38.6393176,6.88110854 40.4763494,8.83982301 43.1092897,8.83982301 C45.7141758,8.83982301 47.5640225,6.88775177 47.6035062,4.56566654 L47.6038526,4.46581051 Z M8.94029064,8.69560959 L5.16821047,0.223935972 L3.77208017,0.223935972 L0,8.69560959 L1.50626909,8.69560959 L4.44572776,1.99037741 L7.40700638,8.69560959 L8.94029064,8.69560959 Z M28.3690492,8.69560959 L24.596969,0.223935972 L23.2008387,0.223935972 L19.4287585,8.69560959 L20.9346813,8.69560959 L23.8744863,1.99037741 L26.8354186,8.69560959 L28.3690492,8.69560959 Z M55.2183216,6.10004477 L50.6257422,0.284036432 L49.2296119,0.284036432 L49.2296119,8.69560959 L50.7112902,8.69560959 L50.7112902,2.71137532 L55.4385992,8.69560959 L56.7,8.69560959 L56.7,0.284036432 L55.2183216,0.284036432 L55.2183216,6.10004477 Z M40.2190125,4.46581051 C40.2190125,2.83154164 41.4069874,1.50971213 43.1092897,1.50971213 C44.7987771,1.50971213 45.9888301,2.81628298 46.0234649,4.4179239 L46.0241576,4.51387011 C46.0241576,6.14810438 44.8361827,7.46993389 43.1338804,7.46993389 C41.4443931,7.46993389 40.2546864,6.16336304 40.2200516,4.56172212 L40.2190125,4.46581051 Z M17.0645845,0.994861904 C16.5121588,0.457417781 15.6656834,0.139857609 14.5857692,0.139857609 L10.7572342,0.139857609 L10.7572342,8.69007356 L12.2666204,8.69007356 L12.2662741,6.05693298 L12.2652351,6.05759038 L12.2652351,4.15081074 L12.2662741,4.15098374 L12.2666204,1.50787832 L14.4631618,1.50787832 C15.57875,1.50787832 16.2271141,1.98504898 16.2420071,2.8921957 L16.2423535,2.94921675 L16.2413144,3.00865981 C16.2108358,3.85335326 15.5306075,4.37830673 14.475284,4.37830673 L13.8258808,4.37806453 L13.0483287,5.70947828 L14.1562972,5.70972048 L16.2669442,8.69007356 L18.058258,8.69007356 L15.7391093,5.45319497 L15.816345,5.43018587 C16.9530603,5.07823315 17.757974,4.2563758 17.7759841,2.90932278 L17.7763304,2.83929208 C17.7763304,2.09417786 17.5186472,1.47123676 17.0645845,0.994861904 Z" id="形状" fill="url(#linearGradient-1)"></path>
                    <g id="编组" transform="translate(62.300000, 0.039823)" fill-rule="nonzero">
                        <polygon id="路径" fill="url(#linearGradient-2)" points="39.8434239 8.79943137 36.031471 0.189963737 34.6205083 0.189963737 30.8085554 8.79943137 32.3306365 8.79936194 35.3010659 1.98514189 38.2936497 8.79936194"></polygon>
                        <path d="M4.38727675,8.94773639 C5.98932164,8.94773639 7.01223491,8.36687505 7.88699018,7.41525116 L6.9135783,6.426551 C6.17417297,7.11864111 5.48392286,7.53883867 4.43643198,7.53883867 C2.78523187,7.53883867 1.58992916,6.16701721 1.58992916,4.4738682 L1.58992916,4.44915069 C1.58992916,2.75600168 2.7973476,1.40889772 4.42431625,1.40889772 C5.42230575,1.40889772 6.14959536,1.82909529 6.85196119,2.47175039 L7.82537307,1.34710396 C6.99977302,0.556143837 6.03847686,1.10415274e-14 4.43643198,1.10415274e-14 C1.8363976,1.10415274e-14 2.56899141e-14,2.01447656 2.56899141e-14,4.4738682 L2.56899141e-14,4.4985857 C2.56899141e-14,6.98269484 1.87309094,8.94773639 4.38727675,8.94773639 Z" id="路径" fill="url(#linearGradient-3)"></path>
                        <polygon id="路径" fill="url(#linearGradient-4)" points="18.4567478 8.79943137 19.972598 8.79943137 19.972598 0.148305023 18.4567478 0.148305023"></polygon>
                        <polygon id="路径" fill="url(#linearGradient-5)" points="22.1087732 8.79943137 23.5996996 8.79943137 23.5996996 2.64477291 28.356679 8.79943137 29.6260607 8.79943137 29.6260607 0.148305023 28.1347882 0.148305023 28.1347882 6.12994096 23.5135049 0.148305023 22.1087732 0.148305023"></polygon>
                        <polygon id="路径" fill="url(#linearGradient-6)" points="15.089615 5.15359955 11.2156988 5.15359955 12.0464913 3.74470183 15.089615 3.74470183 15.089615 0.148305023 16.605119 0.148305023 16.605119 8.79943137 15.089615 8.79943137"></polygon>
                        <polygon id="路径" fill="url(#linearGradient-7)" points="9.2152197 8.79943137 10.7310699 8.79943137 10.7310699 0.148305023 9.2152197 0.148305023"></polygon>
                    </g>
                </g>
            </g>
        </g>
    </g>
</svg>