<?xml version="1.0" encoding="UTF-8"?>
<svg width="828px" height="479px" viewBox="0 0 828 479" version="1.1" xmlns="http://www.w3.org/2000/svg" xmlns:xlink="http://www.w3.org/1999/xlink">
    <title>画板</title>
    <defs>
        <linearGradient x1="42.5625304%" y1="21.2986422%" x2="71.5258973%" y2="75.7497299%" id="linearGradient-1">
            <stop stop-color="#FFFFFF" offset="0%"></stop>
            <stop stop-color="#00B3EC" offset="100%"></stop>
        </linearGradient>
        <path d="M81.6549578,6.15943472 C23.1329206,-15.3019194 24.2775003,25.6716835 4.05613297,46.4178465 C-7.6006526,93.1554602 6.62844938,68.3145263 48.5425895,116.047842 C64.4623598,132.205299 50.8262328,131.002256 64.9574249,128.209131 C78.1518085,123.500168 61.4322115,143.669921 72.8527264,143.154331 C72.3374357,145.605572 79.5138124,136.954349 79.9895714,134.510019 C129.472187,116.208186 148.965896,88.5326589 150.897432,59.0560224 C137.227289,49.945883 107.606119,39.0926899 93.0419168,34.1690125 C92.6636079,29.5494365 88.966018,17.7189723 81.6549578,6.15943472 Z" id="path-2"></path>
        <linearGradient x1="69.7646846%" y1="5.20268809%" x2="-22.880975%" y2="304.891407%" id="linearGradient-4">
            <stop stop-color="#9AD5D9" offset="0%"></stop>
            <stop stop-color="#00C2FF" offset="100%"></stop>
        </linearGradient>
        <linearGradient x1="127.582769%" y1="-16.5921364%" x2="67.4427219%" y2="121.183609%" id="linearGradient-5">
            <stop stop-color="#656969" offset="0%"></stop>
            <stop stop-color="#00B0E8" offset="100%"></stop>
        </linearGradient>
        <linearGradient x1="42.2092557%" y1="89.2870344%" x2="78.911311%" y2="-24.5869894%" id="linearGradient-6">
            <stop stop-color="#738485" offset="0%"></stop>
            <stop stop-color="#00C2FF" offset="100%"></stop>
        </linearGradient>
        <linearGradient x1="80.1061187%" y1="1.74779472%" x2="89.1973483%" y2="88.3129531%" id="linearGradient-7">
            <stop stop-color="#EFEFEF" offset="0%"></stop>
            <stop stop-color="#07A6D9" offset="100%"></stop>
        </linearGradient>
        <linearGradient x1="97.2336752%" y1="0%" x2="45.7973259%" y2="107.600975%" id="linearGradient-8">
            <stop stop-color="#DDFDFF" offset="0%"></stop>
            <stop stop-color="#979797" offset="100%"></stop>
        </linearGradient>
    </defs>
    <g id="画板" stroke="none" stroke-width="1" fill="none" fill-rule="evenodd" opacity="0.662551153">
        <g id="Group_966备份-2" transform="translate(267.000000, 184.000000)">
            <path d="M201.196403,57.7994817 C142.499374,36.4502976 90.2445275,41.4317876 69.9626946,62.0690161 C58.2710531,108.562709 11.7427552,137.502498 58.2710531,187.317398 C74.2384264,203.390373 144.533044,222.507711 158.706952,219.728733 C171.940328,215.044391 180.913187,194.590961 192.368312,194.077609 C191.851019,196.516491 199.048855,187.910504 199.526497,185.478955 C249.156614,167.272817 268.06315,141.007503 270,111.684993 C256.289442,102.622488 227.225162,90.5605376 212.617411,85.6626048 C212.237971,81.0671833 208.529324,69.2985775 201.196403,57.7994817 Z" id="路径" fill="url(#linearGradient-1)" fill-rule="nonzero"></path>
            <g id="Clipped" transform="translate(120.000000, 52.000000)">
                <mask id="mask-3" fill="white">
                    <use xlink:href="#path-2"></use>
                </mask>
                <g id="路径"></g>
                <path d="M133.891,61.1363521 C141.613465,58.3717943 150.898811,58.679121 155.495516,59.0629338 L156.874528,68.738886 C157.640799,76.7256934 157.15033,85.2907541 153.656834,92.6629082 C145.382764,90.8198696 134.810341,79.3363574 133.891,61.1363521 Z" id="路径" fill="url(#linearGradient-4)" fill-rule="nonzero" mask="url(#mask-3)"></path>
            </g>
            <path d="M189.391379,72.6861032 C177.069484,78.2018991 169.890418,88.3834303 166.722687,93.9239054 C162.499653,100.510503 158.238751,116.269528 163.306756,122.179277 C169.641763,129.566577 181.44171,130.305124 196.22324,122.179277 C211.00477,114.05343 208.768697,96.3246408 205.911671,88.691463 C203.055101,81.0582852 197.837902,68.9924531 189.391379,72.6861032 Z" id="路径" fill="url(#linearGradient-5)" fill-rule="nonzero"></path>
            <path d="M179.000432,94.1595501 C178.935878,90.3744157 186.12487,83.705524 192.514777,81 C197.453146,86.0564383 196.153308,94.6784686 194.594333,99.8644044 C186.602107,100.642318 179.065447,97.9846013 179.000432,94.1595501 Z" id="路径" fill="#FFFFFF" fill-rule="nonzero"></path>
            <path d="M200.088165,185.697352 C140.626746,207.535188 81.9154085,196.850592 65.071475,159.45749 C51.373836,129.048545 69.2956965,89.7032244 106.500525,60 C56.4480589,68.6675947 18,110.921717 18,162.14897 C18,226.132497 75.1448665,279 145.636505,279 C198.273969,279 242.090022,248.540515 265,207.787888 C238.611739,213.710706 208.163639,205.248946 200.088165,185.697352 Z" id="路径" fill="url(#linearGradient-6)"></path>
            <path d="M77.5273528,104.637159 C84.1083101,102.645919 84.6854436,93.7790979 84.1509934,89.5942445 L87.9434557,76.1206504 L112.568578,68.5989612 C116.379203,69.6089702 124,69.3133012 124,60.0496251 C119.512798,45.0065252 107.867959,35.050046 91.0952134,37.3227519 C74.3224679,39.5954114 62.677629,54.5303158 62.0364704,75.6337481 C61.3957658,96.7371803 69.3012696,107.126441 77.5273528,104.637159 Z" id="路径" fill="url(#linearGradient-7)" fill-rule="nonzero"></path>
            <path d="M92.027785,45.1307926 C73.9444161,50.6472227 78.5523264,78.6755397 83.1163562,92 C84.5653352,87.1871314 90.9626445,76.9370844 104.96005,74.4375351 C118.956993,71.9375236 122.818473,66.6440613 123,64.3094849 C120.210588,55.6181327 110.111154,39.6142701 92.027785,45.1307926 Z" id="路径" fill="url(#linearGradient-8)" fill-rule="nonzero"></path>
        </g>
    </g>
</svg>