<?xml version="1.0" encoding="UTF-8"?>
<svg width="144px" height="144px" viewBox="0 0 144 144" version="1.1" xmlns="http://www.w3.org/2000/svg" xmlns:xlink="http://www.w3.org/1999/xlink">
    <title>Group_966备份 5</title>
    <defs>
        <linearGradient x1="50%" y1="34.9913018%" x2="50%" y2="101.314725%" id="linearGradient-1">
            <stop stop-color="#01E8F8" offset="0%"></stop>
            <stop stop-color="#01E8F8" stop-opacity="0" offset="100%"></stop>
        </linearGradient>
        <linearGradient x1="42.5625304%" y1="20.960183%" x2="71.5258973%" y2="76.0533822%" id="linearGradient-2">
            <stop stop-color="#FFFFFF" offset="0%"></stop>
            <stop stop-color="#00B3EC" offset="100%"></stop>
        </linearGradient>
        <path d="M39.7894973,2.99432554 C11.2723992,-7.43882031 11.8301394,12.4799403 1.97650572,22.5654057 C-3.70370831,45.2862618 3.22996516,33.2101792 23.654231,56.4150821 C31.4117471,64.2698109 24.7670234,63.6849676 31.6529866,62.3271279 C38.082454,60.0379293 29.9351916,69.8431807 35.5002738,69.5925336 C35.2491787,70.7841712 38.7461424,66.5784968 38.9779741,65.390219 C63.0902688,56.4930314 72.589323,43.0389497 73.5305376,28.7092832 C66.8692384,24.2805127 52.4351916,19.0043803 45.338228,16.6108014 C45.1538825,14.3650572 43.3520906,8.61383773 39.7894973,2.99432554 Z" id="path-3"></path>
        <linearGradient x1="69.8584505%" y1="5.20268809%" x2="-23.2267307%" y2="304.891407%" id="linearGradient-5">
            <stop stop-color="#9AD5D9" offset="0%"></stop>
            <stop stop-color="#00C2FF" offset="100%"></stop>
        </linearGradient>
        <linearGradient x1="127.846075%" y1="-16.5921364%" x2="67.5019203%" y2="121.183609%" id="linearGradient-6">
            <stop stop-color="#656969" offset="0%"></stop>
            <stop stop-color="#00B0E8" offset="100%"></stop>
        </linearGradient>
        <linearGradient x1="42.2092557%" y1="89.4585903%" x2="78.911311%" y2="-24.9126907%" id="linearGradient-7">
            <stop stop-color="#738485" offset="0%"></stop>
            <stop stop-color="#00C2FF" offset="100%"></stop>
        </linearGradient>
        <linearGradient x1="81.4576227%" y1="1.74779472%" x2="90.9569698%" y2="88.3129531%" id="linearGradient-8">
            <stop stop-color="#EFEFEF" offset="0%"></stop>
            <stop stop-color="#07A6D9" offset="100%"></stop>
        </linearGradient>
        <linearGradient x1="97.2765804%" y1="0%" x2="45.7935084%" y2="107.600975%" id="linearGradient-9">
            <stop stop-color="#DDFDFF" offset="0%"></stop>
            <stop stop-color="#979797" offset="100%"></stop>
        </linearGradient>
    </defs>
    <g id="页面-1" stroke="none" stroke-width="1" fill="none" fill-rule="evenodd">
        <g id="画板备份-3" transform="translate(-1373.000000, -935.000000)">
            <g id="Group_966备份-5" transform="translate(1373.000000, 935.000000)">
                <ellipse id="椭圆形备份" fill="#FFFFFF" fill-rule="nonzero" cx="71.7007466" cy="72.2107765" rx="71.7007466" ry="71.717994"></ellipse>
                <ellipse id="椭圆形" fill-opacity="0.6" fill="url(#linearGradient-1)" fill-rule="nonzero" cx="71.7007466" cy="72.2107765" rx="71.7007466" ry="71.717994"></ellipse>
                <path d="M98.1241911,28.1027128 C69.6070931,17.6695445 44.2198357,20.1039572 34.3662021,30.1891986 C28.6859881,52.9102787 6.08089099,67.0529119 28.6859881,91.3970383 C36.4435042,99.251767 70.595122,108.594251 77.4813091,107.236187 C83.9105525,104.946989 88.2698855,94.9515679 93.8351916,94.7006969 C93.5838726,95.8925585 97.0808362,91.686884 97.312892,90.4986063 C121.424963,81.6014186 130.610428,68.765779 131.551419,54.4361125 C124.890343,50.007342 110.769886,44.1127675 103.672922,41.7191887 C103.488576,39.4734445 101.686784,33.722225 98.1241911,28.1027128 Z" id="路径" fill="url(#linearGradient-2)" fill-rule="nonzero"></path>
                <g id="Clipped" transform="translate(58.013937, 25.803883)">
                    <mask id="mask-4" fill="white">
                        <use xlink:href="#path-3"></use>
                    </mask>
                    <g id="路径"></g>
                    <path d="M65.2435042,29.7206073 C69.0065704,28.3766551 73.5312096,28.5260577 75.7711299,28.7126431 L76.443106,33.4164759 C76.8165007,37.2991538 76.5775012,41.4629418 74.8751618,45.0468143 C70.8433051,44.1508462 65.6914883,38.5682927 65.2435042,29.7206073 Z" id="路径" fill="url(#linearGradient-5)" fill-rule="nonzero" mask="url(#mask-4)"></path>
                </g>
                <path d="M91.9496267,35.7220259 C85.9002738,38.4253858 82.3757591,43.4154803 80.8205824,46.1309358 C78.7473121,49.359109 76.6554505,57.0828024 79.143554,59.9792434 C82.2536834,63.5998507 88.0467894,63.9618218 95.3036834,59.9792434 C102.560577,55.996665 101.462792,47.307566 100.060154,43.566451 C98.6577402,39.825336 96.0963912,33.9117222 91.9496267,35.7220259 Z" id="路径" fill="url(#linearGradient-6)" fill-rule="nonzero"></path>
                <path d="M86.9373569,46.2904181 C86.905998,44.4637631 90.3982578,41.2454455 93.5023395,39.9397959 C95.9012942,42.3799652 95.2698606,46.5408412 94.5125436,49.0435042 C90.6300896,49.4189149 86.9689398,48.1363365 86.9373569,46.2904181 Z" id="路径" fill="#FFFFFF" fill-rule="nonzero"></path>
                <path d="M97.3303634,90.4311847 C68.4049278,101.077526 39.8443753,95.8685913 31.6505226,77.6387755 C24.9872076,62.8138626 33.7054256,43.6323046 51.8039821,29.1514435 C27.4555998,33.3770533 8.75226481,53.9767048 8.75226481,78.9509209 C8.75226481,110.144052 36.5507964,135.917919 70.8419612,135.917919 C96.4478347,135.917919 117.762469,121.068367 128.907193,101.200722 C116.070433,104.088203 101.258736,99.9629418 97.3303634,90.4311847 Z" id="路径" fill="url(#linearGradient-7)"></path>
                <path d="M37.2868342,51.0430811 C40.5331508,50.0821553 40.8178447,45.8032354 40.5542061,43.7837232 L42.4249876,37.2816824 L54.5722997,33.6518915 C56.4520408,34.1392982 60.2112992,33.9966152 60.2112992,29.5261822 C57.9978099,22.2667347 52.2535341,17.4619711 43.9797163,18.5587257 C35.7058985,19.6554579 29.9616227,26.8626929 29.6453459,37.0467148 C29.3292932,47.2307367 33.2289945,52.2443504 37.2868342,51.0430811 Z" id="路径" fill="url(#linearGradient-8)" fill-rule="nonzero"></path>
                <path d="M44.9283225,21.9011573 C36.1590343,24.5750622 38.3935789,38.1608512 40.6068442,44.6194375 C41.3095072,42.2865605 44.4117969,37.3181931 51.1996516,36.1066202 C57.9872822,34.8948233 59.8598556,32.3289945 59.9478845,31.1973868 C58.5951966,26.9845445 53.6976108,19.2272076 44.9283225,21.9011573 Z" id="路径" fill="url(#linearGradient-9)" fill-rule="nonzero"></path>
                <ellipse id="椭圆形备份-4" fill-opacity="0.801245629" fill="#FFFFFF" fill-rule="nonzero" cx="71.7007466" cy="72.2107765" rx="71.7007466" ry="71.717994"></ellipse>
            </g>
        </g>
    </g>
</svg>