<?xml version="1.0" encoding="UTF-8"?>
<svg width="854px" height="402px" viewBox="0 0 854 402" version="1.1" xmlns="http://www.w3.org/2000/svg" xmlns:xlink="http://www.w3.org/1999/xlink">
    <title>编组 7</title>
    <defs>
        <linearGradient x1="50%" y1="34.9913018%" x2="50%" y2="101.314725%" id="linearGradient-1">
            <stop stop-color="#01E8F8" offset="0%"></stop>
            <stop stop-color="#01E8F8" stop-opacity="0" offset="100%"></stop>
        </linearGradient>
        <linearGradient x1="42.5625304%" y1="20.960183%" x2="71.5258973%" y2="76.0533822%" id="linearGradient-2">
            <stop stop-color="#01E8F7" offset="0%"></stop>
            <stop stop-color="#00B3EC" offset="100%"></stop>
        </linearGradient>
        <path d="M54.1579268,4.07560976 C15.3429878,-10.125061 16.1021341,16.9865854 2.6902439,30.7140244 C-5.04115854,61.6396341 4.39634146,45.2027439 32.1960366,76.7871951 C42.754878,87.4783537 33.7106707,86.6823171 43.0832317,84.8341463 C51.8344512,81.7182927 40.745122,95.0643293 48.3198171,94.7231707 C47.9780488,96.345122 52.7378049,90.6207317 53.0533537,89.0033537 C85.8728659,76.8932927 98.8021341,58.5807927 100.083232,39.0765244 C91.0164634,33.0484756 71.370122,25.8670732 61.7103659,22.6091463 C61.4594512,19.552439 59.0070122,11.7243902 54.1579268,4.07560976 Z" id="path-3"></path>
        <linearGradient x1="69.8584505%" y1="5.20268809%" x2="-23.2267307%" y2="304.891407%" id="linearGradient-5">
            <stop stop-color="#01E8F7" offset="0%"></stop>
            <stop stop-color="#00C2FF" offset="100%"></stop>
        </linearGradient>
        <linearGradient x1="127.846075%" y1="-16.5921364%" x2="67.5019203%" y2="121.183609%" id="linearGradient-6">
            <stop stop-color="#01E8F7" offset="0%"></stop>
            <stop stop-color="#00B0E8" offset="100%"></stop>
        </linearGradient>
        <linearGradient x1="42.2092557%" y1="89.4585903%" x2="78.911311%" y2="-24.9126907%" id="linearGradient-7">
            <stop stop-color="#01E8F7" offset="0%"></stop>
            <stop stop-color="#00C2FF" offset="100%"></stop>
        </linearGradient>
        <linearGradient x1="81.4576227%" y1="1.74779472%" x2="90.9569698%" y2="88.3129531%" id="linearGradient-8">
            <stop stop-color="#01E8F7" offset="0%"></stop>
            <stop stop-color="#00B3EC" offset="100%"></stop>
        </linearGradient>
        <linearGradient x1="113.808503%" y1="-22.6050173%" x2="66.4691083%" y2="126.906316%" id="linearGradient-9">
            <stop stop-color="#01E8F7" offset="0%"></stop>
            <stop stop-color="#00B3EC" offset="100%"></stop>
        </linearGradient>
    </defs>
    <g id="页面-1" stroke="none" stroke-width="1" fill="none" fill-rule="evenodd">
        <g id="编组-7">
            <rect id="矩形" fill="#D8D8D8" opacity="0" x="0" y="0" width="854" height="402"></rect>
            <g id="Group_966" transform="translate(327.000000, 98.000000)">
                <ellipse id="椭圆形" fill-opacity="0.05" fill="url(#linearGradient-1)" fill-rule="nonzero" cx="97.5926829" cy="108.28689" rx="97.5926829" ry="97.6161585"></ellipse>
                <path d="M133.557927,48.2509146 C94.7429878,34.0502134 60.1881098,37.3637195 46.7762195,51.0908537 C39.0448171,82.0167683 8.27676829,101.266463 39.0448171,134.401524 C49.6036585,145.092683 96.0878049,157.808841 105.460671,155.960366 C114.211585,152.844512 120.145122,139.239634 127.720122,138.898171 C127.378049,140.520427 132.137805,134.796037 132.453659,133.178659 C165.272866,121.068598 177.775305,103.597866 179.056098,84.0935976 C169.989634,78.0655488 150.770122,70.042378 141.110366,66.7844512 C140.859451,63.7277439 138.407012,55.8996951 133.557927,48.2509146 Z" id="路径" fill="url(#linearGradient-2)" fill-rule="nonzero"></path>
                <g id="Clipped" transform="translate(78.963415, 45.121951)">
                    <mask id="mask-4" fill="white">
                        <use xlink:href="#path-3"></use>
                    </mask>
                    <g id="路径"></g>
                    <path d="M88.8036585,40.4530488 C93.9256098,38.6237805 100.084146,38.8271341 103.132927,39.0810976 L104.047561,45.4835366 C104.555793,50.7682927 104.230488,56.4356707 101.913415,61.3137195 C96.4256098,60.0942073 89.4134146,52.4957317 88.8036585,40.4530488 Z" id="路径" fill="url(#linearGradient-5)" fill-rule="nonzero" mask="url(#mask-4)"></path>
                </g>
                <path d="M125.153659,58.6216463 C116.919817,62.3012195 112.122561,69.0932927 110.005793,72.7893293 C107.183841,77.1832317 104.336585,87.6960366 107.723171,91.6384146 C111.956402,96.5664634 119.841463,97.0591463 129.718902,91.6384146 C139.596341,86.2176829 138.102134,74.3908537 136.192988,69.2987805 C134.284146,64.2067073 130.797866,56.157622 125.153659,58.6216463 Z" id="路径" fill="url(#linearGradient-6)" fill-rule="nonzero"></path>
                <path d="M118.331402,73.0064024 C118.28872,70.520122 123.042073,66.1396341 127.267073,64.3625 C130.532317,67.6838415 129.672866,73.3472561 128.642073,76.7536585 C123.357622,77.2646341 118.37439,75.5189024 118.331402,73.0064024 Z" id="路径" fill="#FFFFFF" fill-rule="nonzero"></path>
                <path d="M132.477439,133.08689 C93.1067073,147.577744 54.232622,140.487805 43.079878,115.675 C34.0103659,95.4966463 45.8768293,69.3884146 70.5109756,49.6783537 C37.370122,55.429878 11.9128049,83.4682927 11.9128049,117.460976 C11.9128049,159.918293 49.7496951,194.99939 96.4237805,194.99939 C131.27622,194.99939 160.287805,174.7875 175.457012,147.745427 C157.984756,151.67561 137.82439,146.060671 132.477439,133.08689 Z" id="路径" fill="url(#linearGradient-7)"></path>
                <path d="M50.7515244,79.4753049 C55.170122,78.167378 55.557622,72.3432927 55.1987805,69.5945122 L57.745122,60.7445122 L74.2789634,55.8039634 C76.8375,56.467378 81.9542683,56.2731707 81.9542683,50.1884146 C78.9414634,40.3075 71.1228659,33.7676829 59.8612805,35.2604878 C48.5996951,36.7532622 40.7810976,46.5631098 40.3506098,60.4246951 C39.9204268,74.2862805 45.2283537,81.1103659 50.7515244,79.4753049 Z" id="路径" fill="url(#linearGradient-8)" fill-rule="nonzero"></path>
                <path d="M61.152439,39.8099085 C49.2164634,43.4493902 52.2579268,61.9411585 55.2704268,70.7320122 C56.2268293,67.5567073 60.4493902,60.7942073 69.6884146,59.145122 C78.9271341,57.4957317 81.4759146,54.0033537 81.5957317,52.4631098 C79.7545732,46.7289634 73.0884146,36.1703659 61.152439,39.8099085 Z" id="路径" fill="url(#linearGradient-9)" fill-rule="nonzero"></path>
            </g>
        </g>
    </g>
</svg>