<?xml version="1.0" encoding="UTF-8"?>
<svg width="180px" height="180px" viewBox="0 0 180 180" version="1.1" xmlns="http://www.w3.org/2000/svg" xmlns:xlink="http://www.w3.org/1999/xlink">
    <title>编组 4</title>
    <defs>
        <linearGradient x1="-64.7432739%" y1="-52.2029869%" x2="94.1257603%" y2="105.900578%" id="linearGradient-1">
            <stop stop-color="#FF9372" offset="0%"></stop>
            <stop stop-color="#FFD770" offset="100%"></stop>
        </linearGradient>
    </defs>
    <g id="页面-1" stroke="none" stroke-width="1" fill="none" fill-rule="evenodd">
        <g id="画板备份-4" transform="translate(-338.000000, -285.000000)">
            <g id="编组-4" transform="translate(338.000000, 285.000000)">
                <circle id="椭圆形" fill="url(#linearGradient-1)" cx="88.9534884" cy="88.9534884" r="88.9534884"></circle>
                <path d="M119.049279,118.329488 C102.715535,118.329488 89.4744419,105.089233 89.4744419,88.7567442 C89.4744419,72.4242558 102.715535,59.184 119.049279,59.184 C135.382814,59.184 148.624116,72.4242558 148.624116,88.7567442 C148.624116,105.089233 135.382814,118.329488 119.049279,118.329488 Z" id="路径" stroke="#FFFFFF" stroke-width="2.5" fill-opacity="0.2" fill="#FFFFFF" fill-rule="nonzero"></path>
                <path d="M59.5297674,118.329488 C43.1960233,118.329488 29.9549302,105.089233 29.9549302,88.7567442 C29.9549302,72.4242558 43.1960233,59.184 59.5297674,59.184 C75.8635116,59.184 89.1046047,72.4242558 89.1046047,88.7567442 C89.1046047,105.089233 75.8635116,118.329488 59.5297674,118.329488 Z" id="路径" stroke="#FFFFFF" stroke-width="2.5" fill-opacity="0.2" fill="#FFFFFF" fill-rule="nonzero"></path>
                <path d="M89.2410698,88.5250465 C72.9073256,88.5250465 59.6662326,75.285 59.6662326,58.9523023 C59.6662326,42.619814 72.9073256,29.3797674 89.2410698,29.3797674 C105.574605,29.3797674 118.815907,42.619814 118.815907,58.9523023 C118.815907,75.285 105.574605,88.5250465 89.2410698,88.5250465 Z" id="路径" stroke="#FFFFFF" stroke-width="2.5" fill-opacity="0.2" fill="#FFFFFF" fill-rule="nonzero"></path>
                <path d="M89.2410698,148.051256 C72.9073256,148.051256 59.6662326,134.811209 59.6662326,118.478721 C59.6662326,102.146023 72.9073256,88.9059767 89.2410698,88.9059767 C105.574605,88.9059767 118.815907,102.146023 118.815907,118.478721 C118.815907,134.811209 105.574605,148.051256 89.2410698,148.051256 Z" id="路径" stroke="#FFFFFF" stroke-width="2.5" fill-opacity="0.2" fill="#FFFFFF" fill-rule="nonzero"></path>
            </g>
        </g>
    </g>
</svg>