<?xml version="1.0" encoding="UTF-8"?>
<svg width="180px" height="180px" viewBox="0 0 180 180" version="1.1" xmlns="http://www.w3.org/2000/svg" xmlns:xlink="http://www.w3.org/1999/xlink">
    <title>编组 5</title>
    <defs>
        <linearGradient x1="5.35710716%" y1="11.6071439%" x2="93.7494929%" y2="112.500426%" id="linearGradient-1">
            <stop stop-color="#65AAFF" offset="0%"></stop>
            <stop stop-color="#5D21D4" offset="100%"></stop>
        </linearGradient>
        <linearGradient x1="50%" y1="32.8273244%" x2="124.538373%" y2="83.6999793%" id="linearGradient-2">
            <stop stop-color="#FFFFFF" offset="0%"></stop>
            <stop stop-color="#DBEAFF" stop-opacity="0" offset="100%"></stop>
        </linearGradient>
    </defs>
    <g id="页面-1" stroke="none" stroke-width="1" fill="none" fill-rule="evenodd">
        <g id="画板备份-4" transform="translate(-525.000000, -115.000000)">
            <g id="编组-5" transform="translate(525.000000, 115.000000)">
                <circle id="椭圆形" fill="url(#linearGradient-1)" cx="88.9534884" cy="88.9534884" r="88.9534884"></circle>
                <path d="M140.918651,113.761047 L140.918651,64.2417907 C140.918651,60.7351395 139.075953,57.4949302 136.084186,55.7416047 L93.8358837,30.982186 C90.8441163,29.2288605 87.158093,29.2288605 84.1665349,30.982186 L41.9182326,55.741814 C38.9264651,57.4951395 37.0835581,60.7351395 37.0835581,64.242 L37.0835581,113.761047 C37.0835581,117.267488 38.9264651,120.507698 41.9182326,122.261023 L84.1665349,147.02086 C87.158093,148.774186 90.8441163,148.774186 93.8358837,147.02086 L136.083977,122.260814 C139.075953,120.507698 140.918651,117.267488 140.918651,113.761047 Z" id="路径" fill="#7D80F2" fill-rule="nonzero"></path>
                <path d="M136.084605,122.259767 C137.58593,121.38007 138.796953,120.125302 139.63186,118.650767 L89.0014186,88.9790233 L89.0014186,148.334442 C90.670814,148.334442 92.3402093,147.896163 93.8358837,147.019605 L136.084605,122.259767 Z" id="路径" fill="#7370DB" fill-rule="nonzero"></path>
                <path d="M89.0039302,89.0007907 L139.626209,59.3336512 C138.791721,57.8660233 137.582791,56.6177442 136.087116,55.741186 L93.8383953,30.9813488 C90.8468372,29.2280233 87.1610233,29.2280233 84.1692558,30.9813488 L41.9207442,55.741186 C40.4248605,56.6177442 39.2161395,57.8660233 38.3816512,59.3336512 L89.0039302,89.0007907 Z" id="路径" fill="url(#linearGradient-2)" fill-rule="nonzero"></path>
                <path d="M41.9217907,122.259767 C40.4204651,121.38007 39.2083953,120.12614 38.3734884,118.651814 L89.0047674,88.9790233 L89.0047674,148.334442 C87.3355814,148.334442 85.666186,147.896163 84.1703023,147.019605 L41.9217907,122.259767 Z" id="路径" fill-opacity="0.1" fill="#8BB3EA" fill-rule="nonzero"></path>
            </g>
        </g>
    </g>
</svg>