<?xml version="1.0" encoding="UTF-8"?>
<svg width="180px" height="180px" viewBox="0 0 180 180" version="1.1" xmlns="http://www.w3.org/2000/svg" xmlns:xlink="http://www.w3.org/1999/xlink">
    <title>编组 3</title>
    <defs>
        <linearGradient x1="100%" y1="100%" x2="0%" y2="0%" id="linearGradient-1">
            <stop stop-color="#EE355E" offset="0%"></stop>
            <stop stop-color="#EE18CA" offset="100%"></stop>
        </linearGradient>
    </defs>
    <g id="页面-1" stroke="none" stroke-width="1" fill="none" fill-rule="evenodd">
        <g id="画板备份-4" transform="translate(-454.000000, -362.000000)">
            <g id="编组-3" transform="translate(454.000000, 362.000000)">
                <rect id="矩形" fill="url(#linearGradient-1)" x="0" y="0" width="180" height="180" rx="90"></rect>
                <path d="M23.2941176,102.705882 L23.2941176,121.764706 L29.2055294,122.967106 C45.9169412,126.365929 63.1418824,126.365929 79.8532941,122.967106 L85.7647059,121.764706 L85.7647059,102.705882 C85.7647059,91.0105412 76.2835765,81.5294118 64.5882353,81.5294118 L54.5294118,81.5294118 L44.4705882,81.5294118 C32.7752471,81.5294118 23.2941176,91.0105412 23.2941176,102.705882 Z" id="路径" fill="#FFFFFF" fill-rule="nonzero" opacity="0.7"></path>
                <path d="M95.2941176,102.705882 L95.2941176,121.764706 L101.205529,122.967106 C117.916941,126.365929 135.141882,126.365929 151.853294,122.967106 L157.764706,121.764706 L157.764706,102.705882 C157.764706,91.0105412 148.283576,81.5294118 136.588235,81.5294118 L126.529412,81.5294118 L116.470588,81.5294118 C104.775247,81.5294118 95.2941176,91.0105412 95.2941176,102.705882 Z" id="路径" fill="#FFFFFF" fill-rule="nonzero" opacity="0.7"></path>
                <path d="M56.3294118,138.705882 L56.3294118,141.128259 L58.7032941,141.611082 L64.6144941,142.813482 C81.7159765,146.291718 99.3428471,146.291718 116.444329,142.813482 L122.355529,141.611082 L124.729412,141.128259 L124.729412,138.705882 L124.729412,119.647059 C124.729412,106.314353 113.920941,95.5058824 100.588235,95.5058824 L90.5294118,95.5058824 L80.4705882,95.5058824 C67.1378824,95.5058824 56.3294118,106.314353 56.3294118,119.647059 L56.3294118,138.705882 Z" id="路径" stroke="#EF259E" stroke-width="2.8" fill="#FFFFFF" fill-rule="nonzero"></path>
                <circle id="椭圆形" stroke="#EF259E" stroke-width="2.8" fill="#FFFFFF" fill-rule="nonzero" cx="91.0588235" cy="74.1176471" r="19.9058824"></circle>
                <circle id="椭圆形" fill="#FFFFFF" fill-rule="nonzero" opacity="0.7" cx="55.0588235" cy="59.2941176" r="16.9411765"></circle>
                <circle id="椭圆形" fill="#FFFFFF" fill-rule="nonzero" opacity="0.7" cx="127.058824" cy="59.2941176" r="16.9411765"></circle>
            </g>
        </g>
    </g>
</svg>