<?xml version="1.0" encoding="UTF-8"?>
<svg width="1094px" height="437px" viewBox="0 0 1094 437" version="1.1" xmlns="http://www.w3.org/2000/svg" xmlns:xlink="http://www.w3.org/1999/xlink">
    <title>画板备份 13</title>
    <defs>
        <linearGradient x1="50%" y1="7.3789328%" x2="50%" y2="105.315643%" id="linearGradient-1">
            <stop stop-color="#FFFFFF" stop-opacity="0.16" offset="0%"></stop>
            <stop stop-color="#FFFFFF" stop-opacity="0" offset="100%"></stop>
        </linearGradient>
        <linearGradient x1="50.1098779%" y1="28.2840088%" x2="53.5728487%" y2="115.894439%" id="linearGradient-2">
            <stop stop-color="#FFFFFF" offset="0%"></stop>
            <stop stop-color="#FFFFFF" offset="100%"></stop>
        </linearGradient>
        <linearGradient x1="32.3555416%" y1="23.3172122%" x2="74.2041811%" y2="78.0812185%" id="linearGradient-3">
            <stop stop-color="#C2F5FF" offset="0%"></stop>
            <stop stop-color="#8EEDFF" offset="100%"></stop>
        </linearGradient>
        <linearGradient x1="32.355667%" y1="18.6677791%" x2="79.2740052%" y2="79.8813641%" id="linearGradient-4">
            <stop stop-color="#C2F5FF" offset="0%"></stop>
            <stop stop-color="#F5FDFF" offset="100%"></stop>
        </linearGradient>
    </defs>
    <g id="画板备份-13" stroke="none" stroke-width="1" fill="none" fill-rule="evenodd">
        <g id="imagetype" transform="translate(0.000000, -77.000000)">
            <g id="编组" opacity="0.650181362" transform="translate(138.000000, 0.000000)">
                <circle id="椭圆形" fill="url(#linearGradient-1)" fill-rule="nonzero" cx="402" cy="402" r="402"></circle>
                <path d="M716.862797,346.830349 C719.672572,288.860509 678.90948,250.403393 632.902613,224 L603,398.489161 C623.701809,397.341188 633.824971,405.147974 637.503015,408.820924 C642.103417,413.412818 653.607269,427.188501 639.803216,449 C668.558576,444.408106 713.469431,416.856739 716.862797,346.830349 Z" id="路径" fill="url(#linearGradient-2)" fill-rule="nonzero"></path>
                <path d="M327.106875,144.305328 L291.7161,108.727007 C344.99442,102.225328 485.571305,110.564439 621.657935,195.951278 C623.941211,205.132781 621.657935,218.902207 621.657935,218.902207 L633.074314,224.640646 C642.970394,238.797347 659.789772,279.039916 647.915607,326.784858 C636.044269,374.526974 615.568258,394.880057 606.816642,399.086361 C588.550436,399.086361 557.497319,409.644524 547.448645,456.47075 C537.402796,503.29415 518.147547,513.470692 509.774594,512.704624 L308.840669,515 L176.407845,436.960058 L157,275.138908 L194.674051,224.640646 L262.033514,169.55446 L309.982307,150.043767 L327.106875,144.305328 Z M564.420618,211.151074 C555.561621,220.383459 547.276269,224.813082 544.911044,226.014479 C493.172805,215.004026 474.533588,188.228414 474.533588,188.228414 C523.335783,187.925944 567.382095,199.538509 599.607934,219.182062 C599.607934,219.182062 582.164045,213.525601 564.420618,211.151074 Z" id="形状" fill="url(#linearGradient-3)"></path>
                <path d="M546.474291,456.65695 C510.999119,474.044974 468.941072,484.112468 423.84173,484.112468 C297.076852,484.112468 194.314457,404.571926 194.314457,306.451973 C194.314457,233.975051 250.386201,171.633379 330.785473,144 C177.875639,152.802705 55,275.501346 55,426.894885 C55,601.62491 210.934169,746 403.287555,746 C546.923702,746 666.483878,662.817543 729,551.527411 C642.981682,570.852144 541.152026,534.113978 546.474291,456.65695 Z" id="路径" stroke="#FFFFFF" stroke-width="4" fill-opacity="0.69" fill="url(#linearGradient-4)"></path>
            </g>
            <path d="M684.474291,456.65695 C648.999119,474.044974 606.941072,484.112468 561.84173,484.112468 C435.076852,484.112468 332.314457,404.571926 332.314457,306.451973 C332.314457,233.975051 388.386201,171.633379 468.785473,144 C315.875639,152.802705 193,275.501346 193,426.894885 C193,601.62491 348.934169,746 541.287555,746 C684.923702,746 804.483878,662.817543 867,551.527411 C780.981682,570.852144 679.152026,534.113978 684.474291,456.65695 Z" id="路径备份" stroke="#FFFFFF" stroke-width="4" opacity="0.616024926"></path>
        </g>
    </g>
</svg>