<?xml version="1.0" encoding="UTF-8"?>
<svg width="900px" height="437px" viewBox="0 0 900 437" version="1.1" xmlns="http://www.w3.org/2000/svg" xmlns:xlink="http://www.w3.org/1999/xlink">
    <title>画板备份 9</title>
    <defs>
        <linearGradient x1="100%" y1="39.2189035%" x2="40.396875%" y2="23.1720181%" id="linearGradient-1">
            <stop stop-color="#01E8F7" offset="0%"></stop>
            <stop stop-color="#00C2FF" offset="100%"></stop>
        </linearGradient>
        <linearGradient x1="50%" y1="7.3789328%" x2="50%" y2="105.315643%" id="linearGradient-2">
            <stop stop-color="#FFFFFF" stop-opacity="0.16" offset="0%"></stop>
            <stop stop-color="#FFFFFF" stop-opacity="0" offset="100%"></stop>
        </linearGradient>
        <linearGradient x1="50.1098779%" y1="28.2840088%" x2="53.5728487%" y2="115.894439%" id="linearGradient-3">
            <stop stop-color="#FFFFFF" offset="0%"></stop>
            <stop stop-color="#FFFFFF" offset="100%"></stop>
        </linearGradient>
        <linearGradient x1="32.3555416%" y1="23.3172122%" x2="74.2041811%" y2="78.0812185%" id="linearGradient-4">
            <stop stop-color="#C2F5FF" offset="0%"></stop>
            <stop stop-color="#8EEDFF" offset="100%"></stop>
        </linearGradient>
        <linearGradient x1="32.355667%" y1="18.6677791%" x2="79.2740052%" y2="79.8813641%" id="linearGradient-5">
            <stop stop-color="#C2F5FF" offset="0%"></stop>
            <stop stop-color="#F5FDFF" offset="100%"></stop>
        </linearGradient>
    </defs>
    <g id="画板备份-9" stroke="none" stroke-width="1" fill="none" fill-rule="evenodd">
        <g id="imagetype" transform="translate(0.000000, -39.000000)">
            <rect id="矩形" fill="url(#linearGradient-1)" fill-rule="nonzero" x="0" y="39.25" width="1094" height="508"></rect>
            <path d="M288.705692,206.599426 C280.76441,198.679426 268.588158,194 253.059175,194 L198,194 L198,320 L219.70579,320 L219.702357,281.196938 L219.685193,281.206124 L219.685193,253.107751 L219.702357,253.110048 L219.70579,214.16 L251.293556,214.16 C267.338608,214.16 276.661032,221.191196 276.878445,234.56 L276.881878,235.399426 L276.867002,236.275598 C276.429889,248.723445 266.647465,256.459713 251.470919,256.459713 L242.130186,256.456268 L230.949456,276.076555 L246.882368,276.08 L277.23546,320 L303,320 L269.646615,272.299713 L270.756563,271.960957 C287.104848,266.773971 298.681499,254.662584 298.936672,234.811483 L298.94125,233.780287 C298.94125,222.8 295.234936,213.620287 288.705692,206.599426 Z M570.610748,210.794647 C557.969976,200.010945 544.626558,194 523.381803,194 C486.564784,194 460.570329,222.713355 460.009125,256.8713 L460,258.353686 C460,294.419357 485.282685,322 523.733126,322 C545.503724,322 562.710551,313.159565 575,302.728976 L575,250.75144 L554.106567,269.844761 L554.106567,292.828056 C546.557692,298.485889 536.198236,302.19816 524.43463,302.19816 C499.69718,302.19816 483.140529,284.004819 482.659171,259.118382 L482.648905,257.646314 C482.648905,233.955646 500.030252,214.153806 522.503496,214.153806 C537.953709,214.153806 547.434859,219.104266 556.916008,227.237328 L570.610748,210.794647 Z M726,257.646314 C726,222.817684 699.769048,194 662.177789,194 C624.98414,194 598.57256,222.720234 598.009088,256.883911 L598,258.353686 C598,293.182316 624.23436,322 661.825619,322 C699.019268,322 725.420624,293.279766 725.98864,259.114943 L726,257.646314 Z M171,320 L116.993806,196 L97.005055,196 L43,320 L64.5619237,320 L106.64914,221.855717 L149.045068,320 L171,320 Z M450,320 L395.993806,196 L376.005055,196 L322,320 L343.563063,320 L385.64914,221.855717 L428.045068,320 L450,320 Z M835.780062,282.045773 L769.989136,197 L750,197 L750,320 L771.219938,320 L771.219938,232.494136 L838.936841,320 L857,320 L857,197 L835.780062,197 L835.780062,282.045773 Z M620,258.149671 C620,234.294281 637.189145,215 661.827303,215 C686.269737,215 703.493421,234.071345 703.988487,257.450149 L704,258.851467 C704,282.705719 686.810855,302 662.184211,302 C637.730263,302 620.518092,282.928655 620.011513,259.549851 L620,258.149671 Z" id="形状" fill="#FFFFFF" opacity="0.269949777"></path>
            <g id="编组-2" transform="translate(87.000000, 0.000000)">
                <g id="编组" opacity="0.650181362">
                    <circle id="椭圆形" fill="url(#linearGradient-2)" fill-rule="nonzero" cx="363.5" cy="363.5" r="363.5"></circle>
                    <path d="M648.208027,313.614009 C650.748706,261.196007 613.889542,226.421974 572.288806,202.547264 L545.25,360.325398 C563.969173,359.287367 573.122828,366.346489 576.448622,369.667676 C580.608438,373.819799 591.010553,386.27617 578.52853,405.998756 C604.529956,401.846633 645.139647,376.933892 648.208027,313.614009 Z" id="路径" fill="url(#linearGradient-3)" fill-rule="nonzero"></path>
                    <path d="M295.779476,130.485042 L263.778115,98.3140975 C311.95391,92.4350913 439.067585,99.9755558 562.121043,177.1848 C564.185647,185.48698 562.121043,197.937692 562.121043,197.937692 L572.444063,203.126554 C581.392383,215.927451 596.600951,252.315944 585.863988,295.488298 C575.129581,338.658097 556.614581,357.061942 548.701118,360.865404 C532.184287,360.865404 504.105163,370.412399 495.018862,412.754024 C485.935116,455.093093 468.523963,464.295016 460.952897,463.602316 L279.262644,465.677861 L159.513063,395.111893 L141.96393,248.78854 L176.029895,203.126554 L236.938265,153.316035 L280.294946,135.673904 L295.779476,130.485042 Z M510.36541,190.928894 C502.354849,199.277083 494.862994,203.282476 492.72429,204.368814 C445.941081,194.412845 429.086963,170.201563 429.086963,170.201563 C473.215316,169.928062 513.043263,180.428478 542.182796,198.190745 C542.182796,198.190745 526.409529,193.07601 510.36541,190.928894 Z" id="形状" fill="url(#linearGradient-4)"></path>
                    <path d="M494.137823,412.922391 C462.060149,428.645144 424.030049,437.748463 383.249922,437.748463 C268.625462,437.748463 175.704739,365.825609 175.704739,277.102717 C175.704739,211.566993 226.406428,155.195854 299.105769,130.208955 C160.840286,138.168615 49.7325871,249.116267 49.7325871,386.010674 C49.7325871,544.006604 190.732762,674.554726 364.664244,674.554726 C494.544193,674.554726 602.653954,599.338749 659.182836,498.707 C581.402591,516.180981 489.325277,482.961271 494.137823,412.922391 Z" id="路径" stroke="#FFFFFF" stroke-width="4" fill-opacity="0.69" fill="url(#linearGradient-5)"></path>
                </g>
                <path d="M494.076919,412.533855 C462.022943,428.246621 424.020939,437.344157 383.27094,437.344157 C268.731161,437.344157 175.879086,365.466989 175.879086,276.800454 C175.879086,211.306358 226.543318,154.971027 299.188951,130 C161.025614,137.954604 50,248.831781 50,385.639232 C50,543.534802 190.896007,674 364.698992,674 C494.482989,674 602.512881,598.8318 659,498.263973 C581.277217,515.726854 489.267929,482.528246 494.076919,412.533855 Z" id="路径备份" stroke="#FFFFFF" stroke-width="4" opacity="0.616024926"></path>
            </g>
        </g>
    </g>
</svg>