<?xml version="1.0" encoding="UTF-8"?>
<svg width="1094px" height="437px" viewBox="0 0 1094 437" version="1.1" xmlns="http://www.w3.org/2000/svg" xmlns:xlink="http://www.w3.org/1999/xlink">
    <title>画板</title>
    <defs>
        <linearGradient x1="42.5625304%" y1="20.9432703%" x2="71.5258973%" y2="76.0685556%" id="linearGradient-1">
            <stop stop-color="#FFFFFF" offset="0%"></stop>
            <stop stop-color="#00B3EC" offset="100%"></stop>
        </linearGradient>
        <path d="M192.501938,14.5005905 C54.5359666,-36.0239012 57.2343184,60.4364827 9.56235209,109.277266 C-17.9185734,219.30733 15.6265999,160.826605 114.439378,273.200757 C151.970309,311.238774 119.823077,308.40656 153.137428,301.830963 C184.243247,290.745083 144.826721,338.228877 171.750637,337.015071 C170.535837,342.785802 187.454178,322.419024 188.575782,316.664564 C305.231276,273.578241 351.187784,208.424294 355.741388,139.03016 C323.513964,117.582997 253.681919,92.0323235 219.346746,80.4409628 C218.454881,69.5655199 209.737796,41.7141463 192.501938,14.5005905 Z" id="path-2"></path>
        <linearGradient x1="69.8200761%" y1="5.20268809%" x2="-23.0852278%" y2="304.891407%" id="linearGradient-4">
            <stop stop-color="#9AD5D9" offset="0%"></stop>
            <stop stop-color="#00C2FF" offset="100%"></stop>
        </linearGradient>
        <linearGradient x1="128.104917%" y1="-16.5921364%" x2="67.5601151%" y2="121.183609%" id="linearGradient-5">
            <stop stop-color="#656969" offset="0%"></stop>
            <stop stop-color="#00B0E8" offset="100%"></stop>
        </linearGradient>
        <linearGradient x1="42.2092557%" y1="89.4186786%" x2="78.911311%" y2="-24.8369179%" id="linearGradient-6">
            <stop stop-color="#738485" offset="0%"></stop>
            <stop stop-color="#00C2FF" offset="100%"></stop>
        </linearGradient>
        <linearGradient x1="81.3775043%" y1="1.74779472%" x2="90.8526579%" y2="88.3129531%" id="linearGradient-7">
            <stop stop-color="#EFEFEF" offset="0%"></stop>
            <stop stop-color="#07A6D9" offset="100%"></stop>
        </linearGradient>
        <linearGradient x1="96.7031769%" y1="0%" x2="45.8445277%" y2="107.600975%" id="linearGradient-8">
            <stop stop-color="#DDFDFF" offset="0%"></stop>
            <stop stop-color="#979797" offset="100%"></stop>
        </linearGradient>
    </defs>
    <g id="画板" stroke="none" stroke-width="1" fill="none" fill-rule="evenodd" opacity="0.575009301">
        <g id="Group_966备份-2" transform="translate(200.000000, -52.000000)">
            <path d="M474.37086,133.616957 C336.483443,83.1552488 213.729601,94.9296798 166.084778,143.708583 C138.6195,253.602768 29.3181102,322.005903 138.6195,439.750214 C176.129062,477.740882 341.260813,522.927318 374.557278,516.358823 C405.644304,505.286743 426.722787,456.942272 453.632457,455.728894 C452.417265,461.493525 469.325973,441.1521 470.448022,435.404802 C587.036012,392.372113 631.450072,330.290463 636,260.98271 C603.792009,239.562244 535.516006,211.05218 501.200383,199.475248 C500.309026,188.613342 491.596904,160.796638 474.37086,133.616957 Z" id="路径" fill="url(#linearGradient-1)" fill-rule="nonzero"></path>
            <g id="Clipped" transform="translate(281.000000, 122.000000)">
                <mask id="mask-3" fill="white">
                    <use xlink:href="#path-2"></use>
                </mask>
                <g id="路径"></g>
                <path d="M315.648648,143.927689 C333.854395,137.419345 355.744639,138.142856 366.581393,139.046431 L369.83242,161.825635 C371.638907,180.628241 370.482625,200.792176 362.246692,218.14776 C342.740534,213.808864 317.815999,186.774288 315.648648,143.927689 Z" id="路径" fill="url(#linearGradient-4)" fill-rule="nonzero" mask="url(#mask-3)"></path>
            </g>
            <path d="M444.656053,170.629495 C415.293238,183.72951 398.185677,207.910647 390.637041,221.069275 C380.573642,236.712445 370.420003,274.14013 382.496951,288.175783 C397.593137,305.720621 425.712161,307.474671 460.936232,288.175783 C496.160302,268.876896 490.831789,226.771022 484.023556,208.642225 C477.21641,190.513427 464.783938,161.857076 444.656053,170.629495 Z" id="路径" fill="url(#linearGradient-5)" fill-rule="nonzero"></path>
            <path d="M421.001016,221.474748 C420.849124,212.709173 437.764399,197.265424 452.799476,191 C464.419167,202.709647 461.360726,222.676454 457.692549,234.685989 C438.887311,236.487473 421.153992,230.332761 421.001016,221.474748 Z" id="路径" fill="#FFFFFF" fill-rule="nonzero"></path>
            <path d="M471.312648,435.163624 C331.445908,486.617155 193.343532,461.44249 153.722781,373.338196 C121.502829,301.689722 163.659108,208.985679 251.173299,139 C133.438552,159.422278 43,258.979935 43,379.679765 C43,530.435472 177.417682,655 343.229997,655 C467.045248,655 570.110537,583.232446 624,487.212557 C561.928827,501.16769 490.307993,481.230394 471.312648,435.163624 Z" id="路径" fill="url(#linearGradient-6)"></path>
            <path d="M180.065294,244.151592 C195.774676,239.495604 197.152349,218.762891 195.876565,208.977719 L204.929539,177.473285 L263.712089,159.885806 C272.808421,162.247445 291,161.556101 291,139.895447 C280.288614,104.72114 252.491257,81.4405488 212.45309,86.7546699 C172.414923,92.0686825 144.617566,126.990003 143.087058,176.334793 C141.557635,225.679583 160.428837,249.972119 180.065294,244.151592 Z" id="路径" fill="url(#linearGradient-7)" fill-rule="nonzero"></path>
            <path d="M217.49686,103.662074 C175.165338,116.64867 185.952037,182.632 196.636016,214 C200.027944,202.669705 215.003463,178.539386 247.770116,172.65503 C280.535688,166.769587 289.575063,154.307894 290,148.811912 C283.470241,128.351021 259.828383,90.6752609 217.49686,103.662074 Z" id="路径" fill="url(#linearGradient-8)" fill-rule="nonzero"></path>
        </g>
    </g>
</svg>